<?xml version="1.0" encoding="UTF-8" standalone="no"?>
<!DOCTYPE svg PUBLIC "-//W3C//DTD SVG 1.1//EN"
 "http://www.w3.org/Graphics/SVG/1.1/DTD/svg11.dtd">
<!-- Generated by graphviz version 2.38.0 (20140413.2041)
 -->
<!-- Title: G Pages: 1 -->
<svg width="836pt" height="636pt"
 viewBox="0.00 0.00 835.50 636.00" xmlns="http://www.w3.org/2000/svg" xmlns:xlink="http://www.w3.org/1999/xlink">
<g id="graph0" class="graph" transform="scale(1 1) rotate(0) translate(4 632)">
<title>G</title>
<polygon fill="white" stroke="none" points="-4,4 -4,-632 831.5,-632 831.5,4 -4,4"/>
<!-- 140051570905040 -->
<g id="node1" class="node"><title>140051570905040</title>
<polygon fill="none" stroke="black" points="108,-581.5 108,-627.5 364,-627.5 364,-581.5 108,-581.5"/>
<text text-anchor="middle" x="170.5" y="-600.8" font-family="Times,serif" font-size="14.00">input_1: InputLayer</text>
<polyline fill="none" stroke="black" points="233,-581.5 233,-627.5 "/>
<text text-anchor="middle" x="260.5" y="-612.3" font-family="Times,serif" font-size="14.00">input:</text>
<polyline fill="none" stroke="black" points="233,-604.5 288,-604.5 "/>
<text text-anchor="middle" x="260.5" y="-589.3" font-family="Times,serif" font-size="14.00">output:</text>
<polyline fill="none" stroke="black" points="288,-581.5 288,-627.5 "/>
<text text-anchor="middle" x="326" y="-612.3" font-family="Times,serif" font-size="14.00">(None, 40)</text>
<polyline fill="none" stroke="black" points="288,-604.5 364,-604.5 "/>
<text text-anchor="middle" x="326" y="-589.3" font-family="Times,serif" font-size="14.00">(None, 40)</text>
</g>
<!-- 140051569611048 -->
<g id="node3" class="node"><title>140051569611048</title>
<polygon fill="none" stroke="black" points="76,-498.5 76,-544.5 396,-544.5 396,-498.5 76,-498.5"/>
<text text-anchor="middle" x="156.5" y="-517.8" font-family="Times,serif" font-size="14.00">embedding_1: Embedding</text>
<polyline fill="none" stroke="black" points="237,-498.5 237,-544.5 "/>
<text text-anchor="middle" x="264.5" y="-529.3" font-family="Times,serif" font-size="14.00">input:</text>
<polyline fill="none" stroke="black" points="237,-521.5 292,-521.5 "/>
<text text-anchor="middle" x="264.5" y="-506.3" font-family="Times,serif" font-size="14.00">output:</text>
<polyline fill="none" stroke="black" points="292,-498.5 292,-544.5 "/>
<text text-anchor="middle" x="344" y="-529.3" font-family="Times,serif" font-size="14.00">(None, 40)</text>
<polyline fill="none" stroke="black" points="292,-521.5 396,-521.5 "/>
<text text-anchor="middle" x="344" y="-506.3" font-family="Times,serif" font-size="14.00">(None, 40, 128)</text>
</g>
<!-- 140051570905040&#45;&gt;140051569611048 -->
<g id="edge1" class="edge"><title>140051570905040&#45;&gt;140051569611048</title>
<path fill="none" stroke="black" d="M236,-581.366C236,-573.152 236,-563.658 236,-554.725"/>
<polygon fill="black" stroke="black" points="239.5,-554.607 236,-544.607 232.5,-554.607 239.5,-554.607"/>
</g>
<!-- 140051210344488 -->
<g id="node2" class="node"><title>140051210344488</title>
<polygon fill="none" stroke="black" points="524.5,-498.5 524.5,-544.5 793.5,-544.5 793.5,-498.5 524.5,-498.5"/>
<text text-anchor="middle" x="587" y="-517.8" font-family="Times,serif" font-size="14.00">input_2: InputLayer</text>
<polyline fill="none" stroke="black" points="649.5,-498.5 649.5,-544.5 "/>
<text text-anchor="middle" x="677" y="-529.3" font-family="Times,serif" font-size="14.00">input:</text>
<polyline fill="none" stroke="black" points="649.5,-521.5 704.5,-521.5 "/>
<text text-anchor="middle" x="677" y="-506.3" font-family="Times,serif" font-size="14.00">output:</text>
<polyline fill="none" stroke="black" points="704.5,-498.5 704.5,-544.5 "/>
<text text-anchor="middle" x="749" y="-529.3" font-family="Times,serif" font-size="14.00">(None, 2048)</text>
<polyline fill="none" stroke="black" points="704.5,-521.5 793.5,-521.5 "/>
<text text-anchor="middle" x="749" y="-506.3" font-family="Times,serif" font-size="14.00">(None, 2048)</text>
</g>
<!-- 140051210345272 -->
<g id="node4" class="node"><title>140051210345272</title>
<polygon fill="none" stroke="black" points="507.5,-415.5 507.5,-461.5 810.5,-461.5 810.5,-415.5 507.5,-415.5"/>
<text text-anchor="middle" x="587" y="-434.8" font-family="Times,serif" font-size="14.00">image_embedding: Dense</text>
<polyline fill="none" stroke="black" points="666.5,-415.5 666.5,-461.5 "/>
<text text-anchor="middle" x="694" y="-446.3" font-family="Times,serif" font-size="14.00">input:</text>
<polyline fill="none" stroke="black" points="666.5,-438.5 721.5,-438.5 "/>
<text text-anchor="middle" x="694" y="-423.3" font-family="Times,serif" font-size="14.00">output:</text>
<polyline fill="none" stroke="black" points="721.5,-415.5 721.5,-461.5 "/>
<text text-anchor="middle" x="766" y="-446.3" font-family="Times,serif" font-size="14.00">(None, 2048)</text>
<polyline fill="none" stroke="black" points="721.5,-438.5 810.5,-438.5 "/>
<text text-anchor="middle" x="766" y="-423.3" font-family="Times,serif" font-size="14.00">(None, 128)</text>
</g>
<!-- 140051210344488&#45;&gt;140051210345272 -->
<g id="edge2" class="edge"><title>140051210344488&#45;&gt;140051210345272</title>
<path fill="none" stroke="black" d="M659,-498.366C659,-490.152 659,-480.658 659,-471.725"/>
<polygon fill="black" stroke="black" points="662.5,-471.607 659,-461.607 655.5,-471.607 662.5,-471.607"/>
</g>
<!-- 140051569667824 -->
<g id="node5" class="node"><title>140051569667824</title>
<polygon fill="none" stroke="black" points="58,-415.5 58,-461.5 414,-461.5 414,-415.5 58,-415.5"/>
<text text-anchor="middle" x="156.5" y="-434.8" font-family="Times,serif" font-size="14.00">embedding_lstm: CuDNNLSTM</text>
<polyline fill="none" stroke="black" points="255,-415.5 255,-461.5 "/>
<text text-anchor="middle" x="282.5" y="-446.3" font-family="Times,serif" font-size="14.00">input:</text>
<polyline fill="none" stroke="black" points="255,-438.5 310,-438.5 "/>
<text text-anchor="middle" x="282.5" y="-423.3" font-family="Times,serif" font-size="14.00">output:</text>
<polyline fill="none" stroke="black" points="310,-415.5 310,-461.5 "/>
<text text-anchor="middle" x="362" y="-446.3" font-family="Times,serif" font-size="14.00">(None, 40, 128)</text>
<polyline fill="none" stroke="black" points="310,-438.5 414,-438.5 "/>
<text text-anchor="middle" x="362" y="-423.3" font-family="Times,serif" font-size="14.00">(None, 40, 512)</text>
</g>
<!-- 140051569611048&#45;&gt;140051569667824 -->
<g id="edge3" class="edge"><title>140051569611048&#45;&gt;140051569667824</title>
<path fill="none" stroke="black" d="M236,-498.366C236,-490.152 236,-480.658 236,-471.725"/>
<polygon fill="black" stroke="black" points="239.5,-471.607 236,-461.607 232.5,-471.607 239.5,-471.607"/>
</g>
<!-- 140051209843880 -->
<g id="node6" class="node"><title>140051209843880</title>
<polygon fill="none" stroke="black" points="490.5,-332.5 490.5,-378.5 827.5,-378.5 827.5,-332.5 490.5,-332.5"/>
<text text-anchor="middle" x="583" y="-351.8" font-family="Times,serif" font-size="14.00">repeat_vector_1: RepeatVector</text>
<polyline fill="none" stroke="black" points="675.5,-332.5 675.5,-378.5 "/>
<text text-anchor="middle" x="703" y="-363.3" font-family="Times,serif" font-size="14.00">input:</text>
<polyline fill="none" stroke="black" points="675.5,-355.5 730.5,-355.5 "/>
<text text-anchor="middle" x="703" y="-340.3" font-family="Times,serif" font-size="14.00">output:</text>
<polyline fill="none" stroke="black" points="730.5,-332.5 730.5,-378.5 "/>
<text text-anchor="middle" x="779" y="-363.3" font-family="Times,serif" font-size="14.00">(None, 128)</text>
<polyline fill="none" stroke="black" points="730.5,-355.5 827.5,-355.5 "/>
<text text-anchor="middle" x="779" y="-340.3" font-family="Times,serif" font-size="14.00">(None, 1, 128)</text>
</g>
<!-- 140051210345272&#45;&gt;140051209843880 -->
<g id="edge4" class="edge"><title>140051210345272&#45;&gt;140051209843880</title>
<path fill="none" stroke="black" d="M659,-415.366C659,-407.152 659,-397.658 659,-388.725"/>
<polygon fill="black" stroke="black" points="662.5,-388.607 659,-378.607 655.5,-388.607 662.5,-388.607"/>
</g>
<!-- 140051210344768 -->
<g id="node7" class="node"><title>140051210344768</title>
<polygon fill="none" stroke="black" points="0,-332.5 0,-378.5 472,-378.5 472,-332.5 0,-332.5"/>
<text text-anchor="middle" x="156.5" y="-351.8" font-family="Times,serif" font-size="14.00">time_distributed_1(dense_1): TimeDistributed(Dense)</text>
<polyline fill="none" stroke="black" points="313,-332.5 313,-378.5 "/>
<text text-anchor="middle" x="340.5" y="-363.3" font-family="Times,serif" font-size="14.00">input:</text>
<polyline fill="none" stroke="black" points="313,-355.5 368,-355.5 "/>
<text text-anchor="middle" x="340.5" y="-340.3" font-family="Times,serif" font-size="14.00">output:</text>
<polyline fill="none" stroke="black" points="368,-332.5 368,-378.5 "/>
<text text-anchor="middle" x="420" y="-363.3" font-family="Times,serif" font-size="14.00">(None, 40, 512)</text>
<polyline fill="none" stroke="black" points="368,-355.5 472,-355.5 "/>
<text text-anchor="middle" x="420" y="-340.3" font-family="Times,serif" font-size="14.00">(None, 40, 128)</text>
</g>
<!-- 140051569667824&#45;&gt;140051210344768 -->
<g id="edge5" class="edge"><title>140051569667824&#45;&gt;140051210344768</title>
<path fill="none" stroke="black" d="M236,-415.366C236,-407.152 236,-397.658 236,-388.725"/>
<polygon fill="black" stroke="black" points="239.5,-388.607 236,-378.607 232.5,-388.607 239.5,-388.607"/>
</g>
<!-- 140051209844048 -->
<g id="node8" class="node"><title>140051209844048</title>
<polygon fill="none" stroke="black" points="235.5,-249.5 235.5,-295.5 658.5,-295.5 658.5,-249.5 235.5,-249.5"/>
<text text-anchor="middle" x="319.5" y="-268.8" font-family="Times,serif" font-size="14.00">concatenate_1: Concatenate</text>
<polyline fill="none" stroke="black" points="403.5,-249.5 403.5,-295.5 "/>
<text text-anchor="middle" x="431" y="-280.3" font-family="Times,serif" font-size="14.00">input:</text>
<polyline fill="none" stroke="black" points="403.5,-272.5 458.5,-272.5 "/>
<text text-anchor="middle" x="431" y="-257.3" font-family="Times,serif" font-size="14.00">output:</text>
<polyline fill="none" stroke="black" points="458.5,-249.5 458.5,-295.5 "/>
<text text-anchor="middle" x="558.5" y="-280.3" font-family="Times,serif" font-size="14.00">[(None, 1, 128), (None, 40, 128)]</text>
<polyline fill="none" stroke="black" points="458.5,-272.5 658.5,-272.5 "/>
<text text-anchor="middle" x="558.5" y="-257.3" font-family="Times,serif" font-size="14.00">(None, 41, 128)</text>
</g>
<!-- 140051209843880&#45;&gt;140051209844048 -->
<g id="edge6" class="edge"><title>140051209843880&#45;&gt;140051209844048</title>
<path fill="none" stroke="black" d="M601.35,-332.473C574.361,-322.162 542.05,-309.816 513.981,-299.092"/>
<polygon fill="black" stroke="black" points="515.229,-295.822 504.638,-295.522 512.731,-302.361 515.229,-295.822"/>
</g>
<!-- 140051210344768&#45;&gt;140051209844048 -->
<g id="edge7" class="edge"><title>140051210344768&#45;&gt;140051209844048</title>
<path fill="none" stroke="black" d="M293.378,-332.473C320.123,-322.206 352.119,-309.924 379.97,-299.232"/>
<polygon fill="black" stroke="black" points="381.552,-302.374 389.633,-295.522 379.043,-295.839 381.552,-302.374"/>
</g>
<!-- 140051209913456 -->
<g id="node9" class="node"><title>140051209913456</title>
<polygon fill="none" stroke="black" points="265,-166.5 265,-212.5 629,-212.5 629,-166.5 265,-166.5"/>
<text text-anchor="middle" x="364.5" y="-185.8" font-family="Times,serif" font-size="14.00">language_lstm_1: CuDNNLSTM</text>
<polyline fill="none" stroke="black" points="464,-166.5 464,-212.5 "/>
<text text-anchor="middle" x="491.5" y="-197.3" font-family="Times,serif" font-size="14.00">input:</text>
<polyline fill="none" stroke="black" points="464,-189.5 519,-189.5 "/>
<text text-anchor="middle" x="491.5" y="-174.3" font-family="Times,serif" font-size="14.00">output:</text>
<polyline fill="none" stroke="black" points="519,-166.5 519,-212.5 "/>
<text text-anchor="middle" x="574" y="-197.3" font-family="Times,serif" font-size="14.00">(None, 41, 128)</text>
<polyline fill="none" stroke="black" points="519,-189.5 629,-189.5 "/>
<text text-anchor="middle" x="574" y="-174.3" font-family="Times,serif" font-size="14.00">(None, 41, 1024)</text>
</g>
<!-- 140051209844048&#45;&gt;140051209913456 -->
<g id="edge8" class="edge"><title>140051209844048&#45;&gt;140051209913456</title>
<path fill="none" stroke="black" d="M447,-249.366C447,-241.152 447,-231.658 447,-222.725"/>
<polygon fill="black" stroke="black" points="450.5,-222.607 447,-212.607 443.5,-222.607 450.5,-222.607"/>
</g>
<!-- 140051210004464 -->
<g id="node10" class="node"><title>140051210004464</title>
<polygon fill="none" stroke="black" points="265,-83.5 265,-129.5 629,-129.5 629,-83.5 265,-83.5"/>
<text text-anchor="middle" x="364.5" y="-102.8" font-family="Times,serif" font-size="14.00">language_lstm_2: CuDNNLSTM</text>
<polyline fill="none" stroke="black" points="464,-83.5 464,-129.5 "/>
<text text-anchor="middle" x="491.5" y="-114.3" font-family="Times,serif" font-size="14.00">input:</text>
<polyline fill="none" stroke="black" points="464,-106.5 519,-106.5 "/>
<text text-anchor="middle" x="491.5" y="-91.3" font-family="Times,serif" font-size="14.00">output:</text>
<polyline fill="none" stroke="black" points="519,-83.5 519,-129.5 "/>
<text text-anchor="middle" x="574" y="-114.3" font-family="Times,serif" font-size="14.00">(None, 41, 1024)</text>
<polyline fill="none" stroke="black" points="519,-106.5 629,-106.5 "/>
<text text-anchor="middle" x="574" y="-91.3" font-family="Times,serif" font-size="14.00">(None, 1024)</text>
</g>
<!-- 140051209913456&#45;&gt;140051210004464 -->
<g id="edge9" class="edge"><title>140051209913456&#45;&gt;140051210004464</title>
<path fill="none" stroke="black" d="M447,-166.366C447,-158.152 447,-148.658 447,-139.725"/>
<polygon fill="black" stroke="black" points="450.5,-139.607 447,-129.607 443.5,-139.607 450.5,-139.607"/>
</g>
<!-- 140051209558336 -->
<g id="node11" class="node"><title>140051209558336</title>
<polygon fill="none" stroke="black" points="325.5,-0.5 325.5,-46.5 568.5,-46.5 568.5,-0.5 325.5,-0.5"/>
<text text-anchor="middle" x="371.5" y="-19.8" font-family="Times,serif" font-size="14.00">output: Dense</text>
<polyline fill="none" stroke="black" points="417.5,-0.5 417.5,-46.5 "/>
<text text-anchor="middle" x="445" y="-31.3" font-family="Times,serif" font-size="14.00">input:</text>
<polyline fill="none" stroke="black" points="417.5,-23.5 472.5,-23.5 "/>
<text text-anchor="middle" x="445" y="-8.3" font-family="Times,serif" font-size="14.00">output:</text>
<polyline fill="none" stroke="black" points="472.5,-0.5 472.5,-46.5 "/>
<text text-anchor="middle" x="520.5" y="-31.3" font-family="Times,serif" font-size="14.00">(None, 1024)</text>
<polyline fill="none" stroke="black" points="472.5,-23.5 568.5,-23.5 "/>
<text text-anchor="middle" x="520.5" y="-8.3" font-family="Times,serif" font-size="14.00">(None, 17628)</text>
</g>
<!-- 140051210004464&#45;&gt;140051209558336 -->
<g id="edge10" class="edge"><title>140051210004464&#45;&gt;140051209558336</title>
<path fill="none" stroke="black" d="M447,-83.3664C447,-75.1516 447,-65.6579 447,-56.7252"/>
<polygon fill="black" stroke="black" points="450.5,-56.6068 447,-46.6068 443.5,-56.6069 450.5,-56.6068"/>
</g>
</g>
</svg>
