<?xml version="1.0" encoding="UTF-8" standalone="no"?>
<!DOCTYPE svg PUBLIC "-//W3C//DTD SVG 1.1//EN"
 "http://www.w3.org/Graphics/SVG/1.1/DTD/svg11.dtd">
<!-- Generated by graphviz version 2.38.0 (20140413.2041)
 -->
<!-- Title: G Pages: 1 -->
<svg width="848pt" height="885pt"
 viewBox="0.00 0.00 848.00 885.00" xmlns="http://www.w3.org/2000/svg" xmlns:xlink="http://www.w3.org/1999/xlink">
<g id="graph0" class="graph" transform="scale(1 1) rotate(0) translate(4 881)">
<title>G</title>
<polygon fill="white" stroke="none" points="-4,4 -4,-881 844,-881 844,4 -4,4"/>
<!-- 1987555884784 -->
<g id="node1" class="node"><title>1987555884784</title>
<polygon fill="none" stroke="black" points="109,-830.5 109,-876.5 368,-876.5 368,-830.5 109,-830.5"/>
<text text-anchor="middle" x="172" y="-849.8" font-family="Times New Roman,serif" font-size="14.00">input_1: InputLayer</text>
<polyline fill="none" stroke="black" points="235,-830.5 235,-876.5 "/>
<text text-anchor="middle" x="263" y="-861.3" font-family="Times New Roman,serif" font-size="14.00">input:</text>
<polyline fill="none" stroke="black" points="235,-853.5 291,-853.5 "/>
<text text-anchor="middle" x="263" y="-838.3" font-family="Times New Roman,serif" font-size="14.00">output:</text>
<polyline fill="none" stroke="black" points="291,-830.5 291,-876.5 "/>
<text text-anchor="middle" x="329.5" y="-861.3" font-family="Times New Roman,serif" font-size="14.00">(None, 40)</text>
<polyline fill="none" stroke="black" points="291,-853.5 368,-853.5 "/>
<text text-anchor="middle" x="329.5" y="-838.3" font-family="Times New Roman,serif" font-size="14.00">(None, 40)</text>
</g>
<!-- 1987556013896 -->
<g id="node3" class="node"><title>1987556013896</title>
<polygon fill="none" stroke="black" points="77,-747.5 77,-793.5 400,-793.5 400,-747.5 77,-747.5"/>
<text text-anchor="middle" x="158.5" y="-766.8" font-family="Times New Roman,serif" font-size="14.00">embedding_1: Embedding</text>
<polyline fill="none" stroke="black" points="240,-747.5 240,-793.5 "/>
<text text-anchor="middle" x="268" y="-778.3" font-family="Times New Roman,serif" font-size="14.00">input:</text>
<polyline fill="none" stroke="black" points="240,-770.5 296,-770.5 "/>
<text text-anchor="middle" x="268" y="-755.3" font-family="Times New Roman,serif" font-size="14.00">output:</text>
<polyline fill="none" stroke="black" points="296,-747.5 296,-793.5 "/>
<text text-anchor="middle" x="348" y="-778.3" font-family="Times New Roman,serif" font-size="14.00">(None, 40)</text>
<polyline fill="none" stroke="black" points="296,-770.5 400,-770.5 "/>
<text text-anchor="middle" x="348" y="-755.3" font-family="Times New Roman,serif" font-size="14.00">(None, 40, 128)</text>
</g>
<!-- 1987555884784&#45;&gt;1987556013896 -->
<g id="edge1" class="edge"><title>1987555884784&#45;&gt;1987556013896</title>
<path fill="none" stroke="black" d="M238.5,-830.366C238.5,-822.152 238.5,-812.658 238.5,-803.725"/>
<polygon fill="black" stroke="black" points="242,-803.607 238.5,-793.607 235,-803.607 242,-803.607"/>
</g>
<!-- 1987592199696 -->
<g id="node2" class="node"><title>1987592199696</title>
<polygon fill="none" stroke="black" points="531.5,-747.5 531.5,-793.5 803.5,-793.5 803.5,-747.5 531.5,-747.5"/>
<text text-anchor="middle" x="594.5" y="-766.8" font-family="Times New Roman,serif" font-size="14.00">input_2: InputLayer</text>
<polyline fill="none" stroke="black" points="657.5,-747.5 657.5,-793.5 "/>
<text text-anchor="middle" x="685.5" y="-778.3" font-family="Times New Roman,serif" font-size="14.00">input:</text>
<polyline fill="none" stroke="black" points="657.5,-770.5 713.5,-770.5 "/>
<text text-anchor="middle" x="685.5" y="-755.3" font-family="Times New Roman,serif" font-size="14.00">output:</text>
<polyline fill="none" stroke="black" points="713.5,-747.5 713.5,-793.5 "/>
<text text-anchor="middle" x="758.5" y="-778.3" font-family="Times New Roman,serif" font-size="14.00">(None, 2048)</text>
<polyline fill="none" stroke="black" points="713.5,-770.5 803.5,-770.5 "/>
<text text-anchor="middle" x="758.5" y="-755.3" font-family="Times New Roman,serif" font-size="14.00">(None, 2048)</text>
</g>
<!-- 1987592247392 -->
<g id="node4" class="node"><title>1987592247392</title>
<polygon fill="none" stroke="black" points="515,-664.5 515,-710.5 820,-710.5 820,-664.5 515,-664.5"/>
<text text-anchor="middle" x="594.5" y="-683.8" font-family="Times New Roman,serif" font-size="14.00">image_embedding: Dense</text>
<polyline fill="none" stroke="black" points="674,-664.5 674,-710.5 "/>
<text text-anchor="middle" x="702" y="-695.3" font-family="Times New Roman,serif" font-size="14.00">input:</text>
<polyline fill="none" stroke="black" points="674,-687.5 730,-687.5 "/>
<text text-anchor="middle" x="702" y="-672.3" font-family="Times New Roman,serif" font-size="14.00">output:</text>
<polyline fill="none" stroke="black" points="730,-664.5 730,-710.5 "/>
<text text-anchor="middle" x="775" y="-695.3" font-family="Times New Roman,serif" font-size="14.00">(None, 2048)</text>
<polyline fill="none" stroke="black" points="730,-687.5 820,-687.5 "/>
<text text-anchor="middle" x="775" y="-672.3" font-family="Times New Roman,serif" font-size="14.00">(None, 128)</text>
</g>
<!-- 1987592199696&#45;&gt;1987592247392 -->
<g id="edge2" class="edge"><title>1987592199696&#45;&gt;1987592247392</title>
<path fill="none" stroke="black" d="M667.5,-747.366C667.5,-739.152 667.5,-729.658 667.5,-720.725"/>
<polygon fill="black" stroke="black" points="671,-720.607 667.5,-710.607 664,-720.607 671,-720.607"/>
</g>
<!-- 1987556013504 -->
<g id="node5" class="node"><title>1987556013504</title>
<polygon fill="none" stroke="black" points="65.5,-664.5 65.5,-710.5 411.5,-710.5 411.5,-664.5 65.5,-664.5"/>
<text text-anchor="middle" x="158.5" y="-683.8" font-family="Times New Roman,serif" font-size="14.00">cu_dnnlstm_1: CuDNNLSTM</text>
<polyline fill="none" stroke="black" points="251.5,-664.5 251.5,-710.5 "/>
<text text-anchor="middle" x="279.5" y="-695.3" font-family="Times New Roman,serif" font-size="14.00">input:</text>
<polyline fill="none" stroke="black" points="251.5,-687.5 307.5,-687.5 "/>
<text text-anchor="middle" x="279.5" y="-672.3" font-family="Times New Roman,serif" font-size="14.00">output:</text>
<polyline fill="none" stroke="black" points="307.5,-664.5 307.5,-710.5 "/>
<text text-anchor="middle" x="359.5" y="-695.3" font-family="Times New Roman,serif" font-size="14.00">(None, 40, 128)</text>
<polyline fill="none" stroke="black" points="307.5,-687.5 411.5,-687.5 "/>
<text text-anchor="middle" x="359.5" y="-672.3" font-family="Times New Roman,serif" font-size="14.00">(None, 40, 256)</text>
</g>
<!-- 1987556013896&#45;&gt;1987556013504 -->
<g id="edge3" class="edge"><title>1987556013896&#45;&gt;1987556013504</title>
<path fill="none" stroke="black" d="M238.5,-747.366C238.5,-739.152 238.5,-729.658 238.5,-720.725"/>
<polygon fill="black" stroke="black" points="242,-720.607 238.5,-710.607 235,-720.607 242,-720.607"/>
</g>
<!-- 1987592280664 -->
<g id="node6" class="node"><title>1987592280664</title>
<polygon fill="none" stroke="black" points="495,-581.5 495,-627.5 840,-627.5 840,-581.5 495,-581.5"/>
<text text-anchor="middle" x="590.5" y="-600.8" font-family="Times New Roman,serif" font-size="14.00">repeat_vector_1: RepeatVector</text>
<polyline fill="none" stroke="black" points="686,-581.5 686,-627.5 "/>
<text text-anchor="middle" x="714" y="-612.3" font-family="Times New Roman,serif" font-size="14.00">input:</text>
<polyline fill="none" stroke="black" points="686,-604.5 742,-604.5 "/>
<text text-anchor="middle" x="714" y="-589.3" font-family="Times New Roman,serif" font-size="14.00">output:</text>
<polyline fill="none" stroke="black" points="742,-581.5 742,-627.5 "/>
<text text-anchor="middle" x="791" y="-612.3" font-family="Times New Roman,serif" font-size="14.00">(None, 128)</text>
<polyline fill="none" stroke="black" points="742,-604.5 840,-604.5 "/>
<text text-anchor="middle" x="791" y="-589.3" font-family="Times New Roman,serif" font-size="14.00">(None, 1, 128)</text>
</g>
<!-- 1987592247392&#45;&gt;1987592280664 -->
<g id="edge4" class="edge"><title>1987592247392&#45;&gt;1987592280664</title>
<path fill="none" stroke="black" d="M667.5,-664.366C667.5,-656.152 667.5,-646.658 667.5,-637.725"/>
<polygon fill="black" stroke="black" points="671,-637.607 667.5,-627.607 664,-637.607 671,-637.607"/>
</g>
<!-- 1987592199976 -->
<g id="node7" class="node"><title>1987592199976</title>
<polygon fill="none" stroke="black" points="0,-581.5 0,-627.5 477,-627.5 477,-581.5 0,-581.5"/>
<text text-anchor="middle" x="158.5" y="-600.8" font-family="Times New Roman,serif" font-size="14.00">time_distributed_1(dense_1): TimeDistributed(Dense)</text>
<polyline fill="none" stroke="black" points="317,-581.5 317,-627.5 "/>
<text text-anchor="middle" x="345" y="-612.3" font-family="Times New Roman,serif" font-size="14.00">input:</text>
<polyline fill="none" stroke="black" points="317,-604.5 373,-604.5 "/>
<text text-anchor="middle" x="345" y="-589.3" font-family="Times New Roman,serif" font-size="14.00">output:</text>
<polyline fill="none" stroke="black" points="373,-581.5 373,-627.5 "/>
<text text-anchor="middle" x="425" y="-612.3" font-family="Times New Roman,serif" font-size="14.00">(None, 40, 256)</text>
<polyline fill="none" stroke="black" points="373,-604.5 477,-604.5 "/>
<text text-anchor="middle" x="425" y="-589.3" font-family="Times New Roman,serif" font-size="14.00">(None, 40, 128)</text>
</g>
<!-- 1987556013504&#45;&gt;1987592199976 -->
<g id="edge5" class="edge"><title>1987556013504&#45;&gt;1987592199976</title>
<path fill="none" stroke="black" d="M238.5,-664.366C238.5,-656.152 238.5,-646.658 238.5,-637.725"/>
<polygon fill="black" stroke="black" points="242,-637.607 238.5,-627.607 235,-637.607 242,-637.607"/>
</g>
<!-- 1987592247896 -->
<g id="node8" class="node"><title>1987592247896</title>
<polygon fill="none" stroke="black" points="237,-498.5 237,-544.5 668,-544.5 668,-498.5 237,-498.5"/>
<text text-anchor="middle" x="323.5" y="-517.8" font-family="Times New Roman,serif" font-size="14.00">concatenate_1: Concatenate</text>
<polyline fill="none" stroke="black" points="410,-498.5 410,-544.5 "/>
<text text-anchor="middle" x="438" y="-529.3" font-family="Times New Roman,serif" font-size="14.00">input:</text>
<polyline fill="none" stroke="black" points="410,-521.5 466,-521.5 "/>
<text text-anchor="middle" x="438" y="-506.3" font-family="Times New Roman,serif" font-size="14.00">output:</text>
<polyline fill="none" stroke="black" points="466,-498.5 466,-544.5 "/>
<text text-anchor="middle" x="567" y="-529.3" font-family="Times New Roman,serif" font-size="14.00">[(None, 1, 128), (None, 40, 128)]</text>
<polyline fill="none" stroke="black" points="466,-521.5 668,-521.5 "/>
<text text-anchor="middle" x="567" y="-506.3" font-family="Times New Roman,serif" font-size="14.00">(None, 41, 128)</text>
</g>
<!-- 1987592280664&#45;&gt;1987592247896 -->
<g id="edge6" class="edge"><title>1987592280664&#45;&gt;1987592247896</title>
<path fill="none" stroke="black" d="M609.034,-581.473C581.663,-571.162 548.895,-558.816 520.429,-548.092"/>
<polygon fill="black" stroke="black" points="521.546,-544.773 510.954,-544.522 519.078,-551.323 521.546,-544.773"/>
</g>
<!-- 1987592199976&#45;&gt;1987592247896 -->
<g id="edge7" class="edge"><title>1987592199976&#45;&gt;1987592247896</title>
<path fill="none" stroke="black" d="M296.694,-581.473C323.937,-571.162 356.553,-558.816 384.887,-548.092"/>
<polygon fill="black" stroke="black" points="386.204,-551.336 394.318,-544.522 383.726,-544.789 386.204,-551.336"/>
</g>
<!-- 1987592245880 -->
<g id="node9" class="node"><title>1987592245880</title>
<polygon fill="none" stroke="black" points="307.5,-415.5 307.5,-461.5 597.5,-461.5 597.5,-415.5 307.5,-415.5"/>
<text text-anchor="middle" x="372.5" y="-434.8" font-family="Times New Roman,serif" font-size="14.00">dropout_1: Dropout</text>
<polyline fill="none" stroke="black" points="437.5,-415.5 437.5,-461.5 "/>
<text text-anchor="middle" x="465.5" y="-446.3" font-family="Times New Roman,serif" font-size="14.00">input:</text>
<polyline fill="none" stroke="black" points="437.5,-438.5 493.5,-438.5 "/>
<text text-anchor="middle" x="465.5" y="-423.3" font-family="Times New Roman,serif" font-size="14.00">output:</text>
<polyline fill="none" stroke="black" points="493.5,-415.5 493.5,-461.5 "/>
<text text-anchor="middle" x="545.5" y="-446.3" font-family="Times New Roman,serif" font-size="14.00">(None, 41, 128)</text>
<polyline fill="none" stroke="black" points="493.5,-438.5 597.5,-438.5 "/>
<text text-anchor="middle" x="545.5" y="-423.3" font-family="Times New Roman,serif" font-size="14.00">(None, 41, 128)</text>
</g>
<!-- 1987592247896&#45;&gt;1987592245880 -->
<g id="edge8" class="edge"><title>1987592247896&#45;&gt;1987592245880</title>
<path fill="none" stroke="black" d="M452.5,-498.366C452.5,-490.152 452.5,-480.658 452.5,-471.725"/>
<polygon fill="black" stroke="black" points="456,-471.607 452.5,-461.607 449,-471.607 456,-471.607"/>
</g>
<!-- 1987592353608 -->
<g id="node10" class="node"><title>1987592353608</title>
<polygon fill="none" stroke="black" points="269,-332.5 269,-378.5 636,-378.5 636,-332.5 269,-332.5"/>
<text text-anchor="middle" x="369" y="-351.8" font-family="Times New Roman,serif" font-size="14.00">language_lstm_1: CuDNNLSTM</text>
<polyline fill="none" stroke="black" points="469,-332.5 469,-378.5 "/>
<text text-anchor="middle" x="497" y="-363.3" font-family="Times New Roman,serif" font-size="14.00">input:</text>
<polyline fill="none" stroke="black" points="469,-355.5 525,-355.5 "/>
<text text-anchor="middle" x="497" y="-340.3" font-family="Times New Roman,serif" font-size="14.00">output:</text>
<polyline fill="none" stroke="black" points="525,-332.5 525,-378.5 "/>
<text text-anchor="middle" x="580.5" y="-363.3" font-family="Times New Roman,serif" font-size="14.00">(None, 41, 128)</text>
<polyline fill="none" stroke="black" points="525,-355.5 636,-355.5 "/>
<text text-anchor="middle" x="580.5" y="-340.3" font-family="Times New Roman,serif" font-size="14.00">(None, 41, 1024)</text>
</g>
<!-- 1987592245880&#45;&gt;1987592353608 -->
<g id="edge9" class="edge"><title>1987592245880&#45;&gt;1987592353608</title>
<path fill="none" stroke="black" d="M452.5,-415.366C452.5,-407.152 452.5,-397.658 452.5,-388.725"/>
<polygon fill="black" stroke="black" points="456,-388.607 452.5,-378.607 449,-388.607 456,-388.607"/>
</g>
<!-- 1987592515144 -->
<g id="node11" class="node"><title>1987592515144</title>
<polygon fill="none" stroke="black" points="304,-249.5 304,-295.5 601,-295.5 601,-249.5 304,-249.5"/>
<text text-anchor="middle" x="369" y="-268.8" font-family="Times New Roman,serif" font-size="14.00">dropout_2: Dropout</text>
<polyline fill="none" stroke="black" points="434,-249.5 434,-295.5 "/>
<text text-anchor="middle" x="462" y="-280.3" font-family="Times New Roman,serif" font-size="14.00">input:</text>
<polyline fill="none" stroke="black" points="434,-272.5 490,-272.5 "/>
<text text-anchor="middle" x="462" y="-257.3" font-family="Times New Roman,serif" font-size="14.00">output:</text>
<polyline fill="none" stroke="black" points="490,-249.5 490,-295.5 "/>
<text text-anchor="middle" x="545.5" y="-280.3" font-family="Times New Roman,serif" font-size="14.00">(None, 41, 1024)</text>
<polyline fill="none" stroke="black" points="490,-272.5 601,-272.5 "/>
<text text-anchor="middle" x="545.5" y="-257.3" font-family="Times New Roman,serif" font-size="14.00">(None, 41, 1024)</text>
</g>
<!-- 1987592353608&#45;&gt;1987592515144 -->
<g id="edge10" class="edge"><title>1987592353608&#45;&gt;1987592515144</title>
<path fill="none" stroke="black" d="M452.5,-332.366C452.5,-324.152 452.5,-314.658 452.5,-305.725"/>
<polygon fill="black" stroke="black" points="456,-305.607 452.5,-295.607 449,-305.607 456,-305.607"/>
</g>
<!-- 1987592515256 -->
<g id="node12" class="node"><title>1987592515256</title>
<polygon fill="none" stroke="black" points="269,-166.5 269,-212.5 636,-212.5 636,-166.5 269,-166.5"/>
<text text-anchor="middle" x="369" y="-185.8" font-family="Times New Roman,serif" font-size="14.00">language_lstm_2: CuDNNLSTM</text>
<polyline fill="none" stroke="black" points="469,-166.5 469,-212.5 "/>
<text text-anchor="middle" x="497" y="-197.3" font-family="Times New Roman,serif" font-size="14.00">input:</text>
<polyline fill="none" stroke="black" points="469,-189.5 525,-189.5 "/>
<text text-anchor="middle" x="497" y="-174.3" font-family="Times New Roman,serif" font-size="14.00">output:</text>
<polyline fill="none" stroke="black" points="525,-166.5 525,-212.5 "/>
<text text-anchor="middle" x="580.5" y="-197.3" font-family="Times New Roman,serif" font-size="14.00">(None, 41, 1024)</text>
<polyline fill="none" stroke="black" points="525,-189.5 636,-189.5 "/>
<text text-anchor="middle" x="580.5" y="-174.3" font-family="Times New Roman,serif" font-size="14.00">(None, 1024)</text>
</g>
<!-- 1987592515144&#45;&gt;1987592515256 -->
<g id="edge11" class="edge"><title>1987592515144&#45;&gt;1987592515256</title>
<path fill="none" stroke="black" d="M452.5,-249.366C452.5,-241.152 452.5,-231.658 452.5,-222.725"/>
<polygon fill="black" stroke="black" points="456,-222.607 452.5,-212.607 449,-222.607 456,-222.607"/>
</g>
<!-- 1987593211408 -->
<g id="node13" class="node"><title>1987593211408</title>
<polygon fill="none" stroke="black" points="314.5,-83.5 314.5,-129.5 590.5,-129.5 590.5,-83.5 314.5,-83.5"/>
<text text-anchor="middle" x="379.5" y="-102.8" font-family="Times New Roman,serif" font-size="14.00">dropout_3: Dropout</text>
<polyline fill="none" stroke="black" points="444.5,-83.5 444.5,-129.5 "/>
<text text-anchor="middle" x="472.5" y="-114.3" font-family="Times New Roman,serif" font-size="14.00">input:</text>
<polyline fill="none" stroke="black" points="444.5,-106.5 500.5,-106.5 "/>
<text text-anchor="middle" x="472.5" y="-91.3" font-family="Times New Roman,serif" font-size="14.00">output:</text>
<polyline fill="none" stroke="black" points="500.5,-83.5 500.5,-129.5 "/>
<text text-anchor="middle" x="545.5" y="-114.3" font-family="Times New Roman,serif" font-size="14.00">(None, 1024)</text>
<polyline fill="none" stroke="black" points="500.5,-106.5 590.5,-106.5 "/>
<text text-anchor="middle" x="545.5" y="-91.3" font-family="Times New Roman,serif" font-size="14.00">(None, 1024)</text>
</g>
<!-- 1987592515256&#45;&gt;1987593211408 -->
<g id="edge12" class="edge"><title>1987592515256&#45;&gt;1987593211408</title>
<path fill="none" stroke="black" d="M452.5,-166.366C452.5,-158.152 452.5,-148.658 452.5,-139.725"/>
<polygon fill="black" stroke="black" points="456,-139.607 452.5,-129.607 449,-139.607 456,-139.607"/>
</g>
<!-- 1987593223136 -->
<g id="node14" class="node"><title>1987593223136</title>
<polygon fill="none" stroke="black" points="329,-0.5 329,-46.5 576,-46.5 576,-0.5 329,-0.5"/>
<text text-anchor="middle" x="376" y="-19.8" font-family="Times New Roman,serif" font-size="14.00">output: Dense</text>
<polyline fill="none" stroke="black" points="423,-0.5 423,-46.5 "/>
<text text-anchor="middle" x="451" y="-31.3" font-family="Times New Roman,serif" font-size="14.00">input:</text>
<polyline fill="none" stroke="black" points="423,-23.5 479,-23.5 "/>
<text text-anchor="middle" x="451" y="-8.3" font-family="Times New Roman,serif" font-size="14.00">output:</text>
<polyline fill="none" stroke="black" points="479,-0.5 479,-46.5 "/>
<text text-anchor="middle" x="527.5" y="-31.3" font-family="Times New Roman,serif" font-size="14.00">(None, 1024)</text>
<polyline fill="none" stroke="black" points="479,-23.5 576,-23.5 "/>
<text text-anchor="middle" x="527.5" y="-8.3" font-family="Times New Roman,serif" font-size="14.00">(None, 17628)</text>
</g>
<!-- 1987593211408&#45;&gt;1987593223136 -->
<g id="edge13" class="edge"><title>1987593211408&#45;&gt;1987593223136</title>
<path fill="none" stroke="black" d="M452.5,-83.3664C452.5,-75.1516 452.5,-65.6579 452.5,-56.7252"/>
<polygon fill="black" stroke="black" points="456,-56.6068 452.5,-46.6068 449,-56.6069 456,-56.6068"/>
</g>
</g>
</svg>
